{"title":"Gosain Baganer Bhoot (2011)  -  Bengali  -  DVD RIP","uid":7196135,"size":734399118,"categoryP":"video","categoryS":"movies","magnet":"?xt=urn:btih:25be7ceeda4bf70c8c965a8b563ee62443bd856e&amp;dn=Gosain+Baganer+Bhoot+%282011%29++-++Bengali++-++DVD+RIP&amp;tr=udp%3A%2F%2Ftracker.openbittorrent.com%3A80&amp;tr=udp%3A%2F%2Fopen.demonii.com%3A1337&amp;tr=udp%3A%2F%2Ftracker.coppersurfer.tk%3A6969&amp;tr=udp%3A%2F%2Fexodus.desync.com%3A6969","seeders":1,"leechers":0,"uploader":"batman.j","files":-1,"time":1334785295,"description":"\n\nNote : 1 CD RIP. Seeding Task Will Be Delayed. No Extra Watermark Added. Enjoy !\n\n\n\nScreens :\n\n\n &lt;a href=&quot;\nhttp://www.shotpix.com/images/69420805994367269531.jpg&quot; rel=&quot;nofollow&quot; target=&quot;_NEW&quot;&gt;\nhttp://www.shotpix.com/images/69420805994367269531.jpg&lt;/a&gt;\n &lt;a href=&quot;\nhttp://i.imgur.com/mRA25.jpg&quot; rel=&quot;nofollow&quot; target=&quot;_NEW&quot;&gt;\nhttp://i.imgur.com/mRA25.jpg&lt;/a&gt;\n &lt;a href=&quot;\nhttp://i.imgur.com/imnuS.jpg&quot; rel=&quot;nofollow&quot; target=&quot;_NEW&quot;&gt;\nhttp://i.imgur.com/imnuS.jpg&lt;/a&gt;\n\n\n\nExtra Screen Shots :\n\n\n &lt;a href=&quot;\nhttp://i.imgur.com/q1uDz.jpg&quot; rel=&quot;nofollow&quot; target=&quot;_NEW&quot;&gt;\nhttp://i.imgur.com/q1uDz.jpg&lt;/a&gt;\n &lt;a href=&quot;\nhttp://i.imgur.com/0Ke8Q.jpg&quot; rel=&quot;nofollow&quot; target=&quot;_NEW&quot;&gt;\nhttp://i.imgur.com/0Ke8Q.jpg&lt;/a&gt;\n &lt;a href=&quot;\nhttp://i.imgur.com/FKMNa.jpg&quot; rel=&quot;nofollow&quot; target=&quot;_NEW&quot;&gt;\nhttp://i.imgur.com/FKMNa.jpg&lt;/a&gt;\n &lt;a href=&quot;\nhttp://i.imgur.com/Ib07G.jpg&quot; rel=&quot;nofollow&quot; target=&quot;_NEW&quot;&gt;\nhttp://i.imgur.com/Ib07G.jpg&lt;/a&gt;\n\n\n\nMedia Info : ---\n\n\n\nFormat                           : AVI\nFormat/Info                      : Audio Video Interleave\nFile size                        : 699 MiB\nDuration                         : 1h 41mn\nOverall bit rate                 : 963 Kbps\n\nVideo\nID                               : 0\nFormat                           : MPEG-4 Visual\nFormat settings, BVOP            : 1\nFormat settings, QPel            : No\nFormat settings, GMC             : No warppoints\nFormat settings, Matrix          : Custom\nCodec ID                         : XVID\nCodec ID/Hint                    : XviD\nDuration                         : 1h 41mn\nBit rate                         : 837 Kbps\nWidth                            : 608 pixels\nHeight                           : 272 pixels\nDisplay aspect ratio             : 2.25:1\nFrame rate                       : 29.970 fps\nColor space                      : YUV\nChroma subsampling               : 4:2:0\nBit depth                        : 8 bits\nScan type                        : Progressive\nCompression mode                 : Lossy\nBits/(Pixel*Frame)               : 0.169\nStream size                      : 608 MiB (87%)\n\n\nAudio\nID                               : 1\nFormat                           : MPEG Audio\nFormat version                   : Version 1\nFormat profile                   : Layer 3\nMode                             : Joint stereo\nMode extension                   : MS Stereo\nCodec ID                         : 55\nCodec ID/Hint                    : MP3\nDuration                         : 1h 41mn\nBit rate mode                    : Variable\nBit rate                         : 112 Kbps\nNominal bit rate                 : 128 Kbps\nChannel(s)                       : 2 channels\nSampling rate                    : 48.0 KHz\nCompression mode                 : Lossy\nStream size                      : 81.5 MiB (12%)\nAlignment                        : Aligned on interleaves\nInterleave, duration             : 24 ms (0.72 video frame)\n\n\n\nTorrent Status :\n\n\n &lt;a href=&quot;\nhttp://torrent-stats.info/5a8b/a2ee3ed9.png&quot; rel=&quot;nofollow&quot; target=&quot;_NEW&quot;&gt;\nhttp://torrent-stats.info/5a8b/a2ee3ed9.png&lt;/a&gt;\n\n\n\n\n\n","torrent":{"xt":"urn:btih:25be7ceeda4bf70c8c965a8b563ee62443bd856e","amp;dn":"Gosain+Baganer+Bhoot+%282011%29++-++Bengali++-++DVD+RIP","amp;tr":["udp%3A%2F%2Ftracker.openbittorrent.com%3A80","udp%3A%2F%2Fopen.demonii.com%3A1337","udp%3A%2F%2Ftracker.coppersurfer.tk%3A6969","udp%3A%2F%2Fexodus.desync.com%3A6969"],"infoHash":"25be7ceeda4bf70c8c965a8b563ee62443bd856e","infoHashBuffer":{"type":"Buffer","data":[37,190,124,238,218,75,247,12,140,150,90,139,86,62,230,36,67,189,133,110]},"announce":[],"urlList":[]}}